<svg data-v-fde0c5aa="" xmlns="http://www.w3.org/2000/svg" viewBox="0 0 300 300" class="iconAboveSlogan"><!----><defs data-v-fde0c5aa=""><!----></defs><rect data-v-fde0c5aa="" fill="transparent" x="0" y="0" width="300px" height="300px" class="logo-background-square"></rect><defs data-v-fde0c5aa=""><linearGradient data-v-fde0c5aa="" gradientTransform="rotate(25)" id="39ce13fc-310c-4b59-9523-41f8ac275523" x1="0%" y1="0%" x2="100%" y2="0%"><stop data-v-fde0c5aa="" offset="0%" stop-color="#e2404b" stop-opacity="1"></stop><stop data-v-fde0c5aa="" offset="100%" stop-color="#22222" stop-opacity="1"></stop></linearGradient></defs><g data-v-fde0c5aa="" id="9b321f67-b72e-4cad-9c93-6041c44efc05" fill="url(#39ce13fc-310c-4b59-9523-41f8ac275523)" transform="matrix(2.2082553751460074,0,0,2.2082553751460074,18.299643403256702,142.47730593380487)"><path d="M0.77 17.18L0.77 8.43L3.54 8.43L5.45 11.49L5.45 11.49Q5.80 12.08 5.80 12.49L5.80 12.49L5.88 12.49L5.88 8.43L8.68 8.43L8.68 17.18L5.91 17.18L4.00 14.11L4.00 14.11Q3.65 13.52 3.65 13.12L3.65 13.12L3.57 13.12L3.57 17.18L0.77 17.18ZM13.86 15.34L13.86 15.34Q15.02 15.34 16.35 14.98L16.35 14.98L16.69 16.91L16.69 16.91Q15.25 17.39 13.58 17.39L13.58 17.39L13.58 17.39Q11.68 17.39 10.77 16.48L10.77 16.48L10.77 16.48Q9.87 15.58 9.87 13.68L9.87 13.68L9.87 13.68Q9.87 11.76 10.77 10.86L10.77 10.86L10.77 10.86Q11.66 9.97 13.58 9.97L13.58 9.97L13.58 9.97Q14.87 9.97 15.57 10.19L15.57 10.19L15.57 10.19Q16.27 10.40 16.57 10.91L16.57 10.91L16.57 10.91Q16.87 11.42 16.87 12.35L16.87 12.35L16.87 12.35Q16.87 13.20 16.48 13.71L16.48 13.71L16.48 13.71Q16.09 14.21 15.23 14.43L15.23 14.43L15.23 14.43Q14.36 14.66 12.88 14.66L12.88 14.66L12.88 15.29L12.88 15.29Q13.17 15.34 13.86 15.34L13.86 15.34ZM13.85 12.00L13.85 12.00Q13.30 12.00 13.09 12.11L13.09 12.11L13.09 12.11Q12.88 12.22 12.88 12.53L12.88 12.53L12.88 13.26L13.38 13.26L13.38 13.26Q13.93 13.26 14.14 13.13L14.14 13.13L14.14 13.13Q14.35 13.01 14.35 12.67L14.35 12.67L14.35 12.00L13.85 12.00ZM25.26 10.18L23.03 13.83L25.26 17.18L22.15 17.18L21.22 15.79L20.47 17.18L17.47 17.18L19.70 13.52L17.47 10.18L20.58 10.18L21.50 11.56L22.26 10.18L25.26 10.18ZM30.04 11.98L29.08 11.98L29.08 15.18L29.08 15.18Q29.48 15.25 29.90 15.27L29.90 15.27L29.78 17.16L29.78 17.16Q28.84 17.39 28.08 17.39L28.08 17.39L28.08 17.39Q27.16 17.39 26.72 17.02L26.72 17.02L26.72 17.02Q26.28 16.65 26.28 15.86L26.28 15.86L26.28 11.98L25.58 11.98L25.58 10.18L26.28 10.18L26.28 9.06L29.08 8.36L29.08 10.18L30.04 10.18L30.04 11.98ZM34.72 11.94L38.09 11.94L38.09 16.76L38.09 16.76Q37.38 17.09 36.53 17.24L36.53 17.24L36.53 17.24Q35.69 17.39 34.51 17.39L34.51 17.39L34.51 17.39Q33.04 17.39 32.26 16.98L32.26 16.98L32.26 16.98Q31.47 16.58 31.14 15.60L31.14 15.60L31.14 15.60Q30.81 14.63 30.81 12.81L30.81 12.81L30.81 12.81Q30.81 10.99 31.18 10.02L31.18 10.02L31.18 10.02Q31.54 9.04 32.42 8.63L32.42 8.63L32.42 8.63Q33.31 8.22 34.93 8.22L34.93 8.22L34.93 8.22Q35.64 8.22 36.48 8.33L36.48 8.33L36.48 8.33Q37.31 8.44 37.67 8.58L37.67 8.58L37.32 10.79L37.32 10.79Q36.82 10.68 36.20 10.61L36.20 10.61L36.20 10.61Q35.57 10.53 35.14 10.53L35.14 10.53L35.14 10.53Q34.38 10.53 34.10 10.74L34.10 10.74L34.10 10.74Q33.82 10.95 33.82 11.51L33.82 11.51L33.82 15.13L35.43 15.13L35.43 13.97L34.72 13.97L34.72 11.94ZM42.85 15.34L42.85 15.34Q44.02 15.34 45.35 14.98L45.35 14.98L45.68 16.91L45.68 16.91Q44.24 17.39 42.57 17.39L42.57 17.39L42.57 17.39Q40.67 17.39 39.77 16.48L39.77 16.48L39.77 16.48Q38.86 15.58 38.86 13.68L38.86 13.68L38.86 13.68Q38.86 11.76 39.76 10.86L39.76 10.86L39.76 10.86Q40.66 9.97 42.57 9.97L42.57 9.97L42.57 9.97Q43.86 9.97 44.56 10.19L44.56 10.19L44.56 10.19Q45.26 10.40 45.56 10.91L45.56 10.91L45.56 10.91Q45.86 11.42 45.86 12.35L45.86 12.35L45.86 12.35Q45.86 13.20 45.47 13.71L45.47 13.71L45.47 13.71Q45.08 14.21 44.22 14.43L44.22 14.43L44.22 14.43Q43.36 14.66 41.87 14.66L41.87 14.66L41.87 15.29L41.87 15.29Q42.17 15.34 42.85 15.34L42.85 15.34ZM42.84 12.00L42.84 12.00Q42.29 12.00 42.08 12.11L42.08 12.11L42.08 12.11Q41.87 12.22 41.87 12.53L41.87 12.53L41.87 13.26L42.38 13.26L42.38 13.26Q42.92 13.26 43.13 13.13L43.13 13.13L43.13 13.13Q43.34 13.01 43.34 12.67L43.34 12.67L43.34 12.00L42.84 12.00ZM47.12 17.18L47.12 10.18L48.52 10.18L49.22 10.88L49.22 10.88Q50.46 9.97 52.02 9.97L52.02 9.97L52.02 9.97Q53.00 9.97 53.56 10.39L53.56 10.39L53.56 10.39Q54.12 10.82 54.12 11.58L54.12 11.58L54.12 17.18L51.32 17.18L51.32 12.28L50.47 12.28L50.47 12.28Q50.18 12.28 50.05 12.37L50.05 12.37L50.05 12.37Q49.92 12.46 49.92 12.67L49.92 12.67L49.92 17.18L47.12 17.18ZM59.16 15.34L59.16 15.34Q60.33 15.34 61.66 14.98L61.66 14.98L61.99 16.91L61.99 16.91Q60.55 17.39 58.88 17.39L58.88 17.39L58.88 17.39Q56.98 17.39 56.08 16.48L56.08 16.48L56.08 16.48Q55.17 15.58 55.17 13.68L55.17 13.68L55.17 13.68Q55.17 11.76 56.07 10.86L56.07 10.86L56.07 10.86Q56.97 9.97 58.88 9.97L58.88 9.97L58.88 9.97Q60.17 9.97 60.87 10.19L60.87 10.19L60.87 10.19Q61.57 10.40 61.87 10.91L61.87 10.91L61.87 10.91Q62.17 11.42 62.17 12.35L62.17 12.35L62.17 12.35Q62.17 13.20 61.78 13.71L61.78 13.71L61.78 13.71Q61.39 14.21 60.53 14.43L60.53 14.43L60.53 14.43Q59.67 14.66 58.18 14.66L58.18 14.66L58.18 15.29L58.18 15.29Q58.48 15.34 59.16 15.34L59.16 15.34ZM59.15 12.00L59.15 12.00Q58.60 12.00 58.39 12.11L58.39 12.11L58.39 12.11Q58.18 12.22 58.18 12.53L58.18 12.53L58.18 13.26L58.69 13.26L58.69 13.26Q59.23 13.26 59.44 13.13L59.44 13.13L59.44 13.13Q59.65 13.01 59.65 12.67L59.65 12.67L59.65 12.00L59.15 12.00ZM64.83 10.18L65.60 11.10L65.60 11.10Q66.43 10.23 67.68 9.97L67.68 9.97L67.84 12.68L67.84 12.68Q67.52 12.71 66.99 12.90L66.99 12.90L66.99 12.90Q66.46 13.09 66.23 13.24L66.23 13.24L66.23 17.18L63.43 17.18L63.43 10.18L64.83 10.18ZM71.97 9.97L71.97 9.97Q73.64 9.97 74.42 10.56L74.42 10.56L74.42 10.56Q75.19 11.14 75.19 12.42L75.19 12.42L75.19 17.18L73.79 17.18L73.09 16.48L73.09 16.48Q72.56 16.93 71.95 17.16L71.95 17.16L71.95 17.16Q71.34 17.39 70.71 17.39L70.71 17.39L70.71 17.39Q69.44 17.39 68.85 16.81L68.85 16.81L68.85 16.81Q68.26 16.24 68.26 15.01L68.26 15.01L68.26 15.01Q68.26 14.15 68.63 13.65L68.63 13.65L68.63 13.65Q68.99 13.15 69.80 12.92L69.80 12.92L69.80 12.92Q70.60 12.70 71.97 12.70L71.97 12.70L72.39 12.70L72.39 12.07L72.39 12.07Q72.18 12.01 71.69 12.01L71.69 12.01L71.69 12.01Q70.39 12.01 68.92 12.38L68.92 12.38L68.59 10.44L68.59 10.44Q70.15 9.97 71.97 9.97L71.97 9.97ZM71.43 15.50L71.43 15.50Q71.97 15.50 72.18 15.39L72.18 15.39L72.18 15.39Q72.39 15.27 72.39 14.97L72.39 14.97L72.39 14.10L71.81 14.10L71.81 14.10Q71.26 14.10 71.05 14.22L71.05 14.22L71.05 14.22Q70.84 14.35 70.84 14.69L70.84 14.69L70.84 15.50L71.43 15.50ZM80.57 11.98L79.60 11.98L79.60 15.18L79.60 15.18Q80.01 15.25 80.43 15.27L80.43 15.27L80.30 17.16L80.30 17.16Q79.37 17.39 78.61 17.39L78.61 17.39L78.61 17.39Q77.69 17.39 77.25 17.02L77.25 17.02L77.25 17.02Q76.80 16.65 76.80 15.86L76.80 15.86L76.80 11.98L76.10 11.98L76.10 10.18L76.80 10.18L76.80 9.06L79.60 8.36L79.60 10.18L80.57 10.18L80.57 11.98ZM81.54 17.18L81.54 17.18ZM81.62 10.53L84.42 10.18L84.42 17.18L81.62 17.18L81.62 10.53ZM83.02 9.59L83.02 9.59Q82.43 9.59 82.12 9.46L82.12 9.46L82.12 9.46Q81.80 9.34 81.67 9.02L81.67 9.02L81.67 9.02Q81.54 8.71 81.54 8.12L81.54 8.12L81.54 8.12Q81.54 7.27 81.85 6.94L81.85 6.94L81.85 6.94Q82.17 6.62 83.02 6.62L83.02 6.62L83.02 6.62Q83.86 6.62 84.18 6.94L84.18 6.94L84.18 6.94Q84.49 7.27 84.49 8.12L84.49 8.12L84.49 8.12Q84.49 8.69 84.36 9.01L84.36 9.01L84.36 9.01Q84.22 9.32 83.92 9.46L83.92 9.46L83.92 9.46Q83.61 9.59 83.02 9.59L83.02 9.59ZM89.25 17.39L89.25 17.39Q87.35 17.39 86.44 16.48L86.44 16.48L86.44 16.48Q85.54 15.58 85.54 13.68L85.54 13.68L85.54 13.68Q85.54 11.76 86.44 10.86L86.44 10.86L86.44 10.86Q87.33 9.97 89.25 9.97L89.25 9.97L89.25 9.97Q91.17 9.97 92.06 10.86L92.06 10.86L92.06 10.86Q92.96 11.76 92.96 13.68L92.96 13.68L92.96 13.68Q92.96 15.60 92.06 16.49L92.06 16.49L92.06 16.49Q91.17 17.39 89.25 17.39L89.25 17.39ZM88.55 15.29L89.40 15.29L89.40 15.29Q89.71 15.29 89.83 15.20L89.83 15.20L89.83 15.20Q89.95 15.12 89.95 14.90L89.95 14.90L89.95 12.07L89.10 12.07L89.10 12.07Q88.79 12.07 88.67 12.15L88.67 12.15L88.67 12.15Q88.55 12.24 88.55 12.46L88.55 12.46L88.55 15.29ZM94.08 17.18L94.08 10.18L95.48 10.18L96.18 10.88L96.18 10.88Q97.41 9.97 98.98 9.97L98.98 9.97L98.98 9.97Q99.96 9.97 100.52 10.39L100.52 10.39L100.52 10.39Q101.08 10.82 101.08 11.58L101.08 11.58L101.08 17.18L98.28 17.18L98.28 12.28L97.43 12.28L97.43 12.28Q97.13 12.28 97.01 12.37L97.01 12.37L97.01 12.37Q96.88 12.46 96.88 12.67L96.88 12.67L96.88 17.18L94.08 17.18ZM110.18 17.18L107.14 17.18L105.95 14.64L105.21 14.64L105.21 17.18L102.41 17.18L102.41 8.43L106.47 8.43L106.47 8.43Q108.26 8.43 109.05 9.18L109.05 9.18L109.05 9.18Q109.83 9.94 109.83 11.66L109.83 11.66L109.83 11.66Q109.83 13.47 108.75 14.15L108.75 14.15L110.18 17.18ZM105.21 10.74L105.21 12.61L106.34 12.61L106.34 12.61Q106.65 12.61 106.77 12.49L106.77 12.49L106.77 12.49Q106.89 12.36 106.89 12.03L106.89 12.03L106.89 11.33L106.89 11.33Q106.89 10.99 106.77 10.86L106.77 10.86L106.77 10.86Q106.65 10.74 106.34 10.74L106.34 10.74L105.21 10.74ZM113.96 15.06L113.96 17.18L111.16 17.18L111.16 8.43L115.15 8.43L115.15 8.43Q116.94 8.43 117.73 9.18L117.73 9.18L117.73 9.18Q118.51 9.94 118.51 11.66L118.51 11.66L118.51 11.66Q118.51 13.40 117.74 14.23L117.74 14.23L117.74 14.23Q116.97 15.06 115.36 15.06L115.36 15.06L113.96 15.06ZM113.96 13.03L115.02 13.03L115.02 13.03Q115.33 13.03 115.45 12.91L115.45 12.91L115.45 12.91Q115.57 12.78 115.57 12.45L115.57 12.45L115.57 11.33L115.57 11.33Q115.57 10.99 115.45 10.86L115.45 10.86L115.45 10.86Q115.33 10.74 115.02 10.74L115.02 10.74L113.96 10.74L113.96 13.03Z"></path></g><defs data-v-fde0c5aa=""><linearGradient data-v-fde0c5aa="" gradientTransform="rotate(25)" id="60f523a7-03ec-4b04-8bbd-ba71993aaf8c" x1="0%" y1="0%" x2="100%" y2="0%"><stop data-v-fde0c5aa="" offset="0%" stop-color="#e2404b" stop-opacity="1"></stop><stop data-v-fde0c5aa="" offset="100%" stop-color="#222222" stop-opacity="1"></stop></linearGradient></defs><g data-v-fde0c5aa="" id="4cda0a5e-8949-465d-b9d6-0ba566939e62" stroke="none" fill="url(#60f523a7-03ec-4b04-8bbd-ba71993aaf8c)" transform="matrix(0.3963459288358163,0,0,0.3963459288358163,130.13672698293007,101.22510155474264)"><g clip-rule="evenodd"><path d="M36.163 71.443c.794.611 1.527 1.283 2.48 1.736.692-1.098 1.815-2.092 2.108-3.597.112-.568-.075-1.135 0-1.738.172-1.372.658-2.773.746-4.217-.16-.006-.172-.159-.373-.124-.983 1.395-2.182 3.165-1.985 5.335-1.045.814-2.246 1.475-2.976 2.605zM41.87 74.296c.473.726 1.809.589 2.356 1.241 4.033.93 7.601 2.322 10.667 4.218.474-2.71-.146-5.391-.992-7.195-.915-.588-1.603-1.345-1.736-2.48-.164-1.382-.508-2.171-.621-3.35-.041-.438.084-.966 0-1.364-.06-.288-.345-.541-.495-.868-.601-1.309-1.196-2.368-2.357-2.854-.187.525.33.982.125 1.116-.201-.677-.715-.264-.745.248.023-.355.016-.677-.373-.62-.39.089.341.709 0 .745-.797-.442-.436-2.044-1.364-2.357-.507 1.353-.378 3.343-1.364 4.218-.167 1.871-1.118 3.749-.248 5.583-.482.096-.697.459-1.117.619-.38 1.232-1.357 1.868-1.736 3.1zM58.244 81.243c1.354.299 2.365.941 3.845 1.117.047-.487.408-.809.619-1.241 1.04-2.119 1.064-5.258 1.118-8.558-1.257-1.728-3.101-2.79-4.342-4.519-.343-.478-.416-1.042-1.117-1.042h-.248c.106 1 .71 2.938.868 4.764.278.42.817-.514.868-.284-1.054 2.748-1.806 5.765-1.611 9.763z"></path><path d="M49.974 2C22.374 2 0 24.374 0 51.974c0 13.99 5.756 26.632 15.021 35.703-.224-.601-.122-1.231.178-1.844 2.188-1.072 3.373-3.233 3.226-6.327-.034-.702-.479-1.768-.249-2.729.978-.79 1.816-.451 2.729-.621 1.645-.305 2.944-1.497 3.969-2.231.417-.3.907-.447 1.365-.745 2.095-1.361 3.222-2.899 6.327-2.232.214-.613.565-1.089 1.24-1.24.924-1.14 1.693-2.833 2.605-4.218.173-.264.487-.346.62-.62.161-.331.111-.84.249-1.241.169-.492.528-.858.62-1.24.208-.859-.067-1.379-.248-1.86-.54-1.435-.71-2.981-.745-4.59-.469-.179-.238.341-.62.248-.623-1.628-.442-2.841-.744-4.838-.364-.001-.42.574-.744.248-.189-.847.702-1.147.372-1.736-.37-.356-.368.361-.868.248.145-1.013.766-1.55.744-2.73-.18-.067-.641.146-.62-.124.387-.854.843-1.637.992-2.729-.39-.141-.301.195-.496.249-.463-.998.7-1.991.372-2.853-.401-.154-.094.4-.496.248.21-1.774 1.229-2.74 2.232-3.722.259-1.147.96-1.851.993-3.225.348-.232.522-.637.62-1.117-.165-.304-.461.136-.496-.125.206-.333.67-.951 0-1.116.359-.509.796-.94.992-1.613-.002-.205-.344-.069-.373-.248 1.172-.806.737-2.802.373-4.218.181-.108.393-.187.372-.497-.268-.683-.753-1.149-1.116-1.737.226-.674.447-1.325.495-1.86.293-.002.365.214.746.124-.778-1.074.227-2.457.992-3.101 1.049.059 1.212 1.187 1.861 1.86.459.477 1.186.611 1.612 1.117.301.357.407.821.621 1.241.458.121.669.488 1.365.372.368.541 1.051.768 1.364 1.364.483 1.212 1.015 2.375 1.24 3.846 1.144.675 2.435 1.204 2.605 2.853-.615.304-1.269-.036-1.985 0 .15.402.561.742.62 1.24.101.85-.431 1.492-.249 2.233.289 1.167 1.498 1.033 1.985 2.232-.234.056-.748-.168-.62.249.582.369 1.191.71 1.736 1.116-.46-.088-.532.211-.992.124.02.559.768.391.744.993-.256.075-.469.191-.372.62.36.136.881.112 1.24.248-.115.298-.498.328-.372.868.681.395.979 1.173 1.239 1.985.803.396 1.598.801 2.234 1.364.039.168.177.236.123.497 1.241.5 1.529 1.953 2.357 2.729 1.018.952 2.617 1.594 3.721 2.233.423.244.668.534 1.118.869.64.477 1.809.211 2.479.867.535 1.109 1.608 1.501 2.233 2.358.651.891.736 1.991 1.612 2.852 1.12.163 1.729.836 2.48 1.366 0 .413.404.422.374.867 1.821 1.363 1.46 4.396 1.983 5.954.732 2.171 1.281 3.718 3.598 4.094 1.37.223 2.864-.421 3.722.495-1.489-.041-1.979.916-3.102 1.24-.391.228.417.832 0 1.03-.755-.079-1.142.909-1.112.909h-1.116c.06 0-.228.271-.373.582-.459-.2-.91-.632-1.612-.591-.072.218.15.634-.123.647-.345-.193-.69-.433-1.116-.542.018.307.022.577-.249.597-1.114-.333-1.508-1.781-2.604-1.751-.394-.971-.593-2.143-.993-3.105.114-1.027-.077-1.056-.123-1.989-.167-.245-.866.039-.869-.372.097-.511-.19-.639-.123-1.117-.625.169-.411-.5-.621-.745-.158-.174-.608-.055-.621-.373-.205-.538-.093-1.395-.62-1.612-1.002 2.14.309 3.739.994 5.582.098.267.097.943.37 1.489.028.055.313.153.369.248.177.296.744 1.085.744 1.115 0-.021-.563.634-.625.745-.408.726-.327.976-.504 1.736-.497 2.126-1.973 3.97-1.382 6.327-.65.798-1.342 1.589-1.649 2.729 1.104.674 1.886 1.601 3.155 2.109 1.199 1.737 3.247 2.771 4.239 4.713C73.788 90.803 74 93.026 75 93.44v2.11c15-8.563 25.232-24.863 25.232-43.577C100.232 24.374 77.574 2 49.974 2z"></path></g></g><defs data-v-fde0c5aa=""><!----></defs><g data-v-fde0c5aa="" id="b0e1a2b1-d1bc-480b-bcad-11326957c279" fill="#000000" transform="matrix(0.5651027207843744,0,0,0.5651027207843744,52.08182398123032,189.9294929511394)"><path d="M0.74 10.05L0.74 11.48L2.10 11.48L2.10 10.05ZM10.64 6.33L10.64 7.27L16.74 7.27L16.74 6.33ZM10.64 10.04L16.74 10.04L16.74 9.10L10.64 9.10ZM42.60 2.21L42.60 10.01L36.88 2.21L35.66 2.21L35.66 11.48L36.71 11.48L36.71 3.65L42.43 11.48L43.65 11.48L43.65 2.21ZM55.69 10.64C54.28 10.64 53.37 9.65 53.21 8.40L59.08 8.40L59.08 7.98C59.08 5.98 57.75 4.37 55.61 4.37C53.47 4.37 52.14 5.98 52.14 7.98C52.14 9.98 53.54 11.59 55.68 11.59C57.34 11.59 58.38 10.72 58.87 9.46L57.72 9.46C57.34 10.16 56.67 10.64 55.69 10.64ZM55.61 5.32C56.95 5.32 57.79 6.23 57.99 7.42L53.23 7.42C53.42 6.23 54.26 5.32 55.61 5.32ZM73.49 11.48L74.69 11.48L76.89 4.48L75.77 4.48L74.09 10.18L72.31 4.48L71.16 4.48L69.38 10.18L67.70 4.48L66.58 4.48L68.78 11.48L69.99 11.48L71.74 5.89ZM95.75 4.65C95.75 4.03 96.11 3.08 98.21 3.08C99.90 3.08 100.69 3.82 100.80 4.75L101.88 4.75C101.79 3.36 100.67 2.10 98.21 2.10C95.89 2.10 94.72 3.15 94.72 4.66C94.72 7.84 101.07 6.69 101.07 8.96C101.07 10.05 100.09 10.60 98.52 10.60C96.91 10.60 95.61 10.05 95.54 8.71L94.44 8.71C94.58 10.37 95.70 11.59 98.45 11.59C100.73 11.59 102.12 10.64 102.12 8.92C102.12 5.68 95.75 6.80 95.75 4.65ZM113.64 10.64C112.22 10.64 111.31 9.65 111.16 8.40L117.03 8.40L117.03 7.98C117.03 5.98 115.70 4.37 113.55 4.37C111.41 4.37 110.08 5.98 110.08 7.98C110.08 9.98 111.48 11.59 113.62 11.59C115.29 11.59 116.33 10.72 116.82 9.46L115.67 9.46C115.29 10.16 114.62 10.64 113.64 10.64ZM113.55 5.32C114.90 5.32 115.74 6.23 115.93 7.42L111.17 7.42C111.37 6.23 112.21 5.32 113.55 5.32ZM128.94 4.37C127.20 4.37 126.50 5.73 126.36 6.20L126.36 4.48L125.31 4.48L125.31 11.48L126.36 11.48L126.36 8.40C126.36 6.86 127.32 5.42 128.88 5.42L129.01 5.42L129.01 4.37ZM141.86 4.48L139.66 10.36L137.45 4.48L136.30 4.48L139.05 11.48L140.28 11.48L143.01 4.48ZM150.99 11.48L152.04 11.48L152.04 4.48L150.99 4.48ZM150.95 1.93L150.95 3.30L152.08 3.30L152.08 1.93ZM163.81 4.37C161.77 4.37 160.43 5.98 160.43 7.98C160.43 9.98 161.77 11.59 163.81 11.59C164.98 11.59 165.80 11.12 166.32 10.36L166.32 11.48L167.37 11.48L167.37 1.68L166.32 1.68L166.32 5.61C165.80 4.86 164.98 4.37 163.81 4.37ZM163.95 10.64C162.40 10.64 161.48 9.42 161.48 7.98C161.48 6.54 162.40 5.32 163.95 5.32C165.51 5.32 166.38 6.54 166.38 7.98C166.38 9.42 165.51 10.64 163.95 10.64ZM179.23 4.37C177.09 4.37 175.76 5.98 175.76 7.98C175.76 9.98 177.09 11.59 179.23 11.59C181.37 11.59 182.70 9.98 182.70 7.98C182.70 5.98 181.37 4.37 179.23 4.37ZM179.23 10.64C177.67 10.64 176.81 9.42 176.81 7.98C176.81 6.54 177.67 5.32 179.23 5.32C180.78 5.32 181.65 6.54 181.65 7.98C181.65 9.42 180.78 10.64 179.23 10.64ZM194.71 4.37C192.98 4.37 192.28 5.73 192.14 6.20L192.14 4.48L191.09 4.48L191.09 11.48L192.14 11.48L192.14 8.40C192.14 6.86 193.09 5.42 194.66 5.42L194.78 5.42L194.78 4.37ZM217.03 2.21L213.12 2.21L213.12 11.48L217.03 11.48C219.24 11.48 221.28 9.74 221.28 6.85C221.28 3.95 219.24 2.21 217.03 2.21ZM216.99 10.49L214.17 10.49L214.17 3.21L216.99 3.21C218.96 3.21 220.23 4.86 220.23 6.85C220.23 8.83 218.96 10.49 216.99 10.49ZM232.88 10.64C231.46 10.64 230.55 9.65 230.40 8.40L236.26 8.40L236.26 7.98C236.26 5.98 234.93 4.37 232.79 4.37C230.65 4.37 229.32 5.98 229.32 7.98C229.32 9.98 230.72 11.59 232.86 11.59C234.53 11.59 235.56 10.72 236.05 9.46L234.91 9.46C234.53 10.16 233.86 10.64 232.88 10.64ZM232.79 5.32C234.14 5.32 234.98 6.23 235.17 7.42L230.41 7.42C230.61 6.23 231.45 5.32 232.79 5.32ZM255.37 4.65C255.37 4.03 255.74 3.08 257.84 3.08C259.53 3.08 260.32 3.82 260.43 4.75L261.51 4.75C261.42 3.36 260.30 2.10 257.84 2.10C255.51 2.10 254.35 3.15 254.35 4.66C254.35 7.84 260.69 6.69 260.69 8.96C260.69 10.05 259.71 10.60 258.15 10.60C256.54 10.60 255.23 10.05 255.16 8.71L254.07 8.71C254.21 10.37 255.33 11.59 258.08 11.59C260.36 11.59 261.74 10.64 261.74 8.92C261.74 5.68 255.37 6.80 255.37 4.65ZM273.10 4.37C271.05 4.37 269.71 5.98 269.71 7.98C269.71 9.98 271.05 11.59 273.10 11.59C274.26 11.59 275.09 11.12 275.60 10.36L275.60 11.48L276.65 11.48L276.65 4.48L275.60 4.48L275.60 5.61C275.09 4.86 274.26 4.37 273.10 4.37ZM273.24 10.64C271.68 10.64 270.76 9.42 270.76 7.98C270.76 6.54 271.68 5.32 273.24 5.32C274.79 5.32 275.66 6.54 275.66 7.98C275.66 9.42 274.79 10.64 273.24 10.64ZM291.20 7.29C291.20 6.05 292.05 5.32 293.09 5.32C294.07 5.32 294.83 6.10 294.83 7.28L294.83 11.48L295.88 11.48L295.88 7.25C295.88 5.49 294.63 4.37 293.29 4.37C291.90 4.37 291.16 5.31 290.88 5.78C290.43 4.89 289.58 4.37 288.65 4.37C287.52 4.37 286.85 4.98 286.52 5.54L286.52 4.48L285.47 4.48L285.47 11.48L286.52 11.48L286.52 7.29C286.52 6.05 287.38 5.32 288.41 5.32C289.39 5.32 290.15 6.10 290.15 7.28L290.15 11.48L291.20 11.48ZM308.18 11.59C310.23 11.59 311.57 9.98 311.57 7.98C311.57 5.98 310.23 4.37 308.18 4.37C307.02 4.37 306.19 4.84 305.68 5.60L305.68 4.48L304.63 4.48L304.63 14.25L305.68 14.25L305.68 10.35C306.19 11.10 307.02 11.59 308.18 11.59ZM308.04 5.32C309.60 5.32 310.52 6.54 310.52 7.98C310.52 9.42 309.60 10.64 308.04 10.64C306.49 10.64 305.62 9.42 305.62 7.98C305.62 6.54 306.49 5.32 308.04 5.32ZM329.81 6.33L329.81 7.27L335.92 7.27L335.92 6.33ZM329.81 10.04L335.92 10.04L335.92 9.10L329.81 9.10ZM344.46 10.05L344.46 11.48L345.81 11.48L345.81 10.05Z"></path></g></svg>